<svg width="283" height="277" viewBox="0 0 283 277" fill="none" xmlns="http://www.w3.org/2000/svg">
<path fill-rule="evenodd" clip-rule="evenodd" d="M262.299 201.026C213.078 189.185 177 150.562 177 104.744C177 92.1501 179.726 80.0999 184.701 69C233.922 80.8411 270 119.464 270 165.282C270 177.876 267.274 189.926 262.299 201.026Z" fill="#FBBF24"/>
<path d="M185 186C233 257.5 159.5 264.5 159.5 264.5C89.636 264.5 28 237.08 28 175.5C28 113.92 71.136 65.5 141 65.5C169.73 77.282 125.5 128 185 186Z" fill="#FBBF24"/>
<path d="M183.062 52.8169C183.083 52.7474 183.105 52.6777 183.127 52.6078C183.152 52.5257 183.178 52.4434 183.204 52.3607C184.759 52.7707 186.3 53.2049 187.824 53.6628C233.483 68.2512 266.045 104.153 269.936 146.247C270.19 149.081 270.322 151.945 270.327 154.834C270.313 168.276 267.4 181.144 262.074 193.027L262.141 193.057C244.075 233.58 197.989 263 142.827 263C103.463 263 68.4317 247.386 45.0937 223.782L45.0319 223.843L42.8037 221.074C41.7868 219.811 39.7681 220.22 39.3226 221.779L38.0424 226.26L23.911 273.529C23.4367 275.116 24.9858 276.558 26.5347 275.973L72.7957 258.477C93.3954 268.933 117.323 275 142.827 275C218.947 275 282.327 222.128 282.327 155L282.327 154.819L282.327 154.74C282.327 151.42 282.171 148.134 281.866 144.887C277.446 96.6805 241.62 57.397 191.457 42.2301C190.178 41.8208 188.891 41.4273 187.596 41.05C189.991 35.8219 192.975 30.425 196.394 25.6861C197.88 23.6267 199.378 21.7861 200.877 20.1736C202.713 26.9863 208.934 32 216.327 32C225.163 32 232.327 24.8366 232.327 16C232.327 7.16344 225.163 0 216.327 0C215.991 0 215.658 0.0103478 215.327 0.0307419V0C203.225 0 193.458 9.24667 186.663 18.6645C182.309 24.6987 178.637 31.5365 175.816 37.9966C175.781 37.9918 175.745 37.9871 175.71 37.9824C175.706 37.9913 175.701 38.0002 175.697 38.0092L175.666 38.0017L174.957 39.5834C173.189 43.3666 171.895 46.3311 170.752 49.4686C170.77 49.4705 170.788 49.4724 170.806 49.4744C166.6 60.9101 164.327 73.0963 164.327 85.7405C164.327 134.201 197.481 180.904 244.987 196.211L248.667 184.789C206.172 171.096 176.327 129.046 176.327 85.7405C176.327 74.193 178.467 63.0675 182.439 52.6254L183.062 52.8169Z" fill="black"/>
<path fill-rule="evenodd" clip-rule="evenodd" d="M73.2195 11.5995C73.5467 11.6417 73.9644 11.7033 74.4554 11.7924C75.5616 11.9931 77.0761 12.3396 78.7832 12.9338C82.1353 14.1006 86.635 16.3665 90.0335 20.7661C95.3119 27.5993 96.5504 37.4074 91.382 51.0864C101.752 45.9532 112.899 42.0746 124.538 39.743L124.682 39.7143L139.365 37.5108L139.82 37.4646C142.864 37.1544 151.472 36.2772 163.008 36.8346C161.141 40.9423 159.698 44.488 158.336 48.6809C149.772 48.5132 143.463 49.1557 140.998 49.4067L140.86 49.4207L126.754 51.5377C73.6156 62.2483 33.5058 107.57 34.3259 152.39C34.7971 178.139 48.1591 199.979 69.9178 215.42C84.4796 225.754 102.755 233.162 123.176 236.768C99.2199 222.96 80.8921 206.492 69.2474 186.021C56.74 164.033 52.3013 138.07 56.1189 107.06C59.916 100.341 64.9825 94.0928 71.5909 88.2858C62.8732 127.027 66.299 156.568 79.678 180.088C93.5453 204.467 118.676 223.397 154.869 239.224C154.966 239.222 155.063 239.221 155.16 239.219L155.379 251.217C119.985 251.865 87.2013 242.4 62.9731 225.206C38.6744 207.963 22.8807 182.816 22.3279 152.61C22.0797 139.046 25.0101 125.648 30.5038 113.05C25.1937 113.827 20.5963 113.641 16.629 112.575C9.66868 110.704 5.37244 106.322 2.95158 101.468C0.637247 96.8274 0.0752425 91.8792 0.00739742 88.369C-0.027437 86.5667 0.0663929 85.0228 0.170821 83.914C0.215169 83.4431 0.261884 83.046 0.302573 82.7354C0.133958 78.2258 1.58648 72.5181 3.92653 67.3803C6.43604 61.8705 10.4478 55.9456 16.0964 52.2034C19.0542 50.2438 22.396 48.9389 26.0085 48.5738C23.5639 44.2987 22.034 40.3303 21.3694 36.6314C20.509 31.843 21.0894 27.4261 23.0936 23.5861C25.0625 19.8137 28.1527 17.0783 31.5243 15.1225C38.1074 11.3038 46.6919 9.9078 54.152 9.652C61.3403 9.40552 68.4671 10.19 73.2195 11.5995ZM37.9318 98.9267C42.0014 92.3626 46.7803 86.1166 52.1648 80.2954L50.9504 81.0466C43.6164 69.1898 37.424 63.7275 32.8223 61.6171C28.6773 59.7162 25.5049 60.3648 22.724 62.2072C19.6077 64.2717 16.818 68.027 14.8472 72.3542C12.8382 76.7651 12.1605 80.6972 12.3075 82.5171L12.3688 83.2768L12.2415 84.0093L12.2388 84.0262C12.2341 84.0567 12.2249 84.1173 12.2128 84.2053C12.1886 84.3817 12.1531 84.6661 12.118 85.0392C12.0472 85.7902 11.9807 86.8727 12.0052 88.1372C12.0559 90.7606 12.4909 93.7076 13.6903 96.1127C14.7832 98.3043 16.5175 100.119 19.7429 100.986C23.1632 101.905 28.8404 101.905 37.9318 98.9267ZM59.8441 72.6573C57.024 68.2876 54.217 64.5483 51.4187 61.4082L51.5696 61.2573C38.8976 48.5853 34.1548 39.9331 33.1802 34.5091C32.7281 31.9928 33.1111 30.3277 33.7318 29.1384C34.3878 27.8816 35.584 26.6404 37.5456 25.5025C41.6291 23.1337 47.8985 21.8735 54.5633 21.645C61.1825 21.418 67.1395 22.2389 70.1509 23.2104L70.8343 23.4308L71.5142 23.4811L71.5529 23.4852L71.6079 23.4915L71.6348 23.4947C71.7711 23.5114 72.0044 23.5436 72.3132 23.5996C72.9375 23.7129 73.832 23.9165 74.8384 24.2669C76.9137 24.9892 79.0601 26.1902 80.5368 28.1019C82.9753 31.2587 86.0828 40.0842 72.2335 62.3287L72.4342 62.4537C68.0079 65.6217 63.8008 69.0335 59.8441 72.6573Z" fill="black"/>
<path d="M111.789 68.2889C110.514 68.7532 109.252 69.2346 108.005 69.7304C103.27 107.218 107.184 138.426 122.071 164.132C138.621 192.71 168.099 213.4 211.33 228.658L215.324 217.342C173.555 202.6 147.033 183.29 132.455 158.118C118.623 134.232 114.976 104.089 120.712 65.4006C117.734 66.2408 114.745 67.2127 111.789 68.2889Z" fill="black"/>
<path d="M220.827 94.5C220.827 96.9404 220.274 96.736 218.649 96.1358C216.598 95.3778 212.838 93.9885 206.327 96.5C199.327 98 194.327 94.5229 194.327 89C194.327 83.4771 199.7 79 206.327 79C212.954 79 220.827 88.9771 220.827 94.5Z" fill="black"/>
</svg>
